# xmcd
#
# Track frame offsets:
#	150
#	15085
#	30900
#	46558
#	65081
#	80134
#	90126
#	104695
#	117883
#	132642
#	158092
#	175112
#	192565
#	203692
#	219158
#	233300
#	243463
#	258324
#	269533
#	284419
#
# Disc length: 3993 seconds
#
# Revision: 0
# Processed by: cddbd v1.5.1PL0 Copyright (c) Steve Scherf et al.
# Submitted via: audiograbber 1.82.02
#
DISCID=070f9714
DTITLE=Kinky Friedman - The Best Of Kinky Friedman
DYEAR=2004
DGENRE=Country
TTITLE0=Kinky Friedman - Sold American
TTITLE1=Kinky Friedman - Nashville Casualty And Life
TTITLE2=Kinky Friedman - Wild Man From Borneo
TTITLE3=Kinky Friedman - We Reserve the Right to Refuse
TTITLE4=Kinky Friedman - People Who Read People Magazin
TTITLE5=Kinky Friedman - Autograph
TTITLE6=Kinky Friedman - Marilyn And Joe
TTITLE7=Kinky Friedman - Rapid City, South Dakota
TTITLE8=Kinky Friedman - The Best Of Kinky Friedman - 0
TTITLE9=Kinky Friedman - Ride 'Em Jewboy
TTITLE10=Kinky Friedman - Silver Eagle Express
TTITLE11=Kinky Friedman - Lady Yesterday
TTITLE12=Kinky Friedman - Get Your Biscuits in the Oven
TTITLE13=Kinky Friedman - Twinkle
TTITLE14=Kinky Friedman - The Ballad of Charles Whitman
TTITLE15=Kinky Friedman - Men's Room L.A.
TTITLE16=Kinky Friedman - The Take-It-Easy Trailer Park
TTITLE17=Kinky Friedman - Asshole From El Paso
TTITLE18=Kinky Friedman - Western Union Wire
TTITLE19=Kinky Friedman - They Ain't makin' Jews Like Je
EXTD=
EXTT0=
EXTT1=
EXTT2=
EXTT3=
EXTT4=
EXTT5=
EXTT6=
EXTT7=
EXTT8=
EXTT9=
EXTT10=
EXTT11=
EXTT12=
EXTT13=
EXTT14=
EXTT15=
EXTT16=
EXTT17=
EXTT18=
EXTT19=
PLAYORDER=
